<mxfile host="app.diagrams.net" agent="Mozilla/5.0 (Windows NT 10.0; Win64; x64) AppleWebKit/537.36 (KHTML, like Gecko) Chrome/127.0.0.0 Safari/537.36" version="24.7.6">
  <diagram name="Page-1" id="t5To3ujypvEjvS914Klu">
    <mxGraphModel dx="1434" dy="738" grid="1" gridSize="10" guides="1" tooltips="1" connect="1" arrows="1" fold="1" page="1" pageScale="1" pageWidth="850" pageHeight="1100" math="0" shadow="0">
      <root>
        <mxCell id="0" />
        <mxCell id="1" parent="0" />
        <mxCell id="n-27aesXt0J-i2Nv3FCj-1" value="" style="rounded=0;whiteSpace=wrap;html=1;" vertex="1" parent="1">
          <mxGeometry x="45" y="110" width="760" height="580" as="geometry" />
        </mxCell>
        <mxCell id="n-27aesXt0J-i2Nv3FCj-2" value="" style="rounded=0;whiteSpace=wrap;html=1;" vertex="1" parent="1">
          <mxGeometry x="40" y="10" width="770" height="60" as="geometry" />
        </mxCell>
        <mxCell id="n-27aesXt0J-i2Nv3FCj-3" value="" style="rounded=0;whiteSpace=wrap;html=1;" vertex="1" parent="1">
          <mxGeometry x="100" y="540" width="660" height="60" as="geometry" />
        </mxCell>
        <mxCell id="n-27aesXt0J-i2Nv3FCj-5" value="Title" style="text;html=1;align=center;verticalAlign=middle;whiteSpace=wrap;rounded=0;" vertex="1" parent="1">
          <mxGeometry x="395" y="25" width="60" height="30" as="geometry" />
        </mxCell>
        <mxCell id="n-27aesXt0J-i2Nv3FCj-7" value="" style="rounded=0;whiteSpace=wrap;html=1;" vertex="1" parent="1">
          <mxGeometry x="100" y="140" width="660" height="370" as="geometry" />
        </mxCell>
        <mxCell id="n-27aesXt0J-i2Nv3FCj-10" value="Card Area" style="text;html=1;align=center;verticalAlign=middle;whiteSpace=wrap;rounded=0;" vertex="1" parent="1">
          <mxGeometry x="338" y="200" width="175" height="90" as="geometry" />
        </mxCell>
        <mxCell id="n-27aesXt0J-i2Nv3FCj-11" value="Play Area" style="text;html=1;align=center;verticalAlign=middle;whiteSpace=wrap;rounded=0;" vertex="1" parent="1">
          <mxGeometry x="373" y="555" width="105" height="30" as="geometry" />
        </mxCell>
      </root>
    </mxGraphModel>
  </diagram>
</mxfile>
